<svg version="1.1" xmlns="http://www.w3.org/2000/svg" viewBox="0 0 952.1884053492324 645.9999999999999" width="1904.3768106984649" height="1291.9999999999998">
  <!-- svg-source:excalidraw -->
  
  <defs>
    <style>
      @font-face {
        font-family: "Virgil";
        src: url("https://excalidraw.com/Virgil.woff2");
      }
      @font-face {
        font-family: "Cascadia";
        src: url("https://excalidraw.com/Cascadia.woff2");
      }
    </style>
  </defs>
  <rect x="0" y="0" width="952.1884053492324" height="645.9999999999999" fill="#f4fce3"></rect><g stroke-linecap="round" transform="translate(361.1884053492324 296.63208187219334) rotate(0 72.5 41)"><path d="M0 0 C0 0, 0 0, 0 0 M0 0 C0 0, 0 0, 0 0 M-0.52 6.86 C2.17 4.58, 2.83 2.72, 4.72 0.76 M-0.07 6.36 C1.64 4.51, 3.05 2.57, 5.14 0.6 M0.15 12.1 C2.17 9.85, 5.27 5.17, 11.82 1.08 M-0.37 11.8 C2.22 8.92, 6.32 6, 10 -0.2 M0.54 17.32 C5.45 14.51, 7.78 8.27, 15.67 -0.62 M0.61 17.9 C5.63 12.43, 11.7 4.73, 15.74 0.3 M-0.99 23.42 C3.41 17.12, 8.53 11.12, 20.25 0.59 M0.73 24.7 C8.5 13.9, 17.21 4.5, 21.43 0.08 M1.35 29.92 C9.99 20.25, 15.57 11.42, 27.52 2.06 M-0.24 31.25 C6.99 22.41, 13.92 15.12, 26.28 0.56 M-0.62 38.01 C9.95 27.14, 15.17 15.5, 31.18 -1.57 M0.71 37.81 C8.04 28.78, 15.87 18.75, 31.72 0.23 M-0.72 44.38 C12.41 30.73, 25.82 15.7, 38.1 -0.54 M-0.45 43.2 C8.12 31.85, 17.33 21.63, 37.87 -0.15 M-1.92 47.18 C10.86 34.6, 22.07 23.59, 43.89 -0.29 M-0.97 48.27 C14.43 31.53, 29.93 15.95, 42.49 -0.36 M-1.45 56.29 C13.58 38.9, 22.89 25.51, 46.09 0.17 M1.12 53.82 C12.37 40.12, 24.22 27.42, 47.67 0.46 M-1.61 59.04 C18.84 39.55, 33.03 22.25, 51.77 -2.16 M-0.44 61.79 C21.21 36.53, 42.39 12.75, 52.79 -1.02 M1.15 66.53 C17.82 44.71, 37.73 27.06, 58.63 -0.61 M0.26 67.17 C22.22 41.65, 45.86 16.12, 57.15 0.92 M0.67 71.52 C17.17 53.99, 34.52 36.3, 62.66 -1.23 M1.14 73.5 C24.09 44.58, 47.92 18.41, 62.97 0.16 M1.48 78.31 C26.73 52.2, 51.98 19.8, 67.25 -1.15 M-0.02 80.26 C26.49 49.03, 53.77 18.14, 68.02 -0.01 M3.06 83.6 C18.15 66.21, 32.16 50.28, 74.83 1.02 M2.17 83.28 C18.47 62.8, 35 44.46, 74.63 0.27 M5.64 81.36 C29.97 58.9, 47.63 33.17, 79.97 -1.16 M7.85 83.26 C35.32 50.41, 64.07 18.08, 80.29 0.63 M10.66 85.28 C29.88 61.55, 47.38 42.06, 85.01 -0.33 M11.91 83.66 C40.37 51.02, 69.01 20.18, 84.69 -0.36 M19.64 82.04 C48.36 50.97, 74.56 15.38, 89.21 -1.75 M18.2 83.65 C35.63 64.39, 51.42 45.19, 90.27 0.02 M23.97 84.74 C50.99 54.99, 76.1 23.52, 96.34 -1.63 M22.85 83.02 C39.15 64.03, 54.35 45.96, 95.32 -0.19 M27.95 83.26 C42.42 67.86, 57.23 49.23, 99.84 -1.52 M28.65 84.14 C44.61 64.38, 61.48 45.13, 100.51 -0.42 M33.12 82.15 C52.46 58.91, 74.36 39.48, 106.41 1.32 M32.93 83.38 C47.11 66.62, 62.36 49.54, 105.98 -0.44 M38.73 82.49 C62.12 58.16, 84.24 33.14, 113.17 -0.46 M39.36 84.59 C59.84 58.91, 81.08 35.33, 111.88 0.91 M44.66 84.25 C61.99 62.36, 79.27 41.38, 114.59 2.06 M44.39 82.99 C71.03 51.5, 98.02 21.52, 116.77 -0.4 M48.59 83.98 C68.79 61.71, 87.58 39.17, 122.94 -0.03 M49.79 84.38 C76.54 52.78, 102.91 19.92, 121.51 -0.14 M53.58 84.35 C74.04 60.99, 93.35 39.44, 128.66 0.4 M55.72 84.32 C70.91 66.09, 85.32 47.72, 127.03 -0.36 M61.25 83.84 C83.15 56.33, 106.15 31.11, 131.34 0.89 M59.33 83.33 C77.25 64.09, 93.56 42.79, 132.81 0.5 M67.33 82.31 C80.5 63.86, 96.89 45.86, 136.86 -1 M65.74 84.05 C83.7 63.21, 99.53 43.92, 137.4 0.85 M70.86 82.69 C93.44 59.2, 113.26 33.21, 144.99 -2.03 M70.67 84.48 C92.42 58.93, 113.11 34.34, 143.49 -0.9 M77.76 84.55 C101.39 56.39, 127.69 24.24, 145.23 1.82 M75.5 83.09 C100.51 54.38, 125.04 26.01, 147.16 2.38 M82 81.75 C98.85 60.62, 117.86 39.96, 148.39 9 M81.78 84.09 C102.18 61.04, 120.92 36.77, 146.96 7.71 M85.19 84.06 C100.53 65.02, 115.82 50.27, 147.65 12.95 M86.36 82.56 C106.71 61.85, 126.68 38.64, 146.31 14.14 M89.71 82.8 C102.32 72.54, 114.16 59.27, 146.99 20.52 M91.89 83.66 C112.1 60.65, 131.84 36.92, 147.45 20.77 M98.36 84.41 C117.44 59.46, 136.48 39.23, 145.54 25.38 M97.95 83.8 C113.12 65.79, 127.75 47.95, 147.19 25.64 M103.45 84.15 C120.22 65.64, 135.73 44.29, 145.98 33.86 M101.54 83.87 C115.07 70.37, 126.91 55.28, 146.76 33.19 M106.46 83.69 C121.44 66.71, 135.66 51.39, 145.54 39.29 M108.2 82.37 C120.47 70.12, 132.24 55.49, 148.22 38.17 M111.12 84.72 C125.06 71.33, 136.22 55.24, 145.08 43.69 M112.54 82.65 C125.03 70.74, 137.53 55.33, 147.03 44.87 M119.1 82.59 C130.87 68.91, 141.23 56.56, 148.08 52.11 M119.3 84.05 C127.48 73.27, 135.96 63.36, 146.46 51 M123.06 83.95 C130.24 76.9, 137.63 67.71, 149.08 54.51 M123.96 83.13 C129.18 76.13, 135.8 69.34, 147.4 57.19 M130.34 84.35 C134.62 78.57, 139.17 72.98, 146.01 63.63 M129.73 82.83 C135.2 74.56, 142.52 67.02, 146.22 62.36 M136.04 81.87 C137.08 78.89, 141.75 76.24, 147.24 69.36 M134.18 83.68 C138.5 78.12, 142.83 73.94, 147.22 67.73 M139.17 82.91 C141.85 80.64, 144.18 77.94, 147.9 75.68 M140.04 83.01 C142.5 79.85, 145.06 77.07, 147.07 74.33" stroke="#fd7e14" stroke-width="0.5" fill="none"></path><path d="M0.58 -0.14 C50.61 -0.13, 104.31 -2.51, 145.76 -0.61 M0.2 -0.56 C52.15 1.52, 106.46 0.62, 144.98 -0.58 M144.81 0.97 C145.83 16.37, 147.34 32.06, 145.55 81.45 M144.2 0.68 C144.29 21.72, 144.44 44.75, 144.28 81.35 M146.35 80.73 C94.5 84.48, 44.35 83.57, -0.76 80.19 M144.8 82.28 C100.59 82.03, 55.55 82.05, 0.68 82.83 M-1.98 81.82 C-1.37 66.19, -1.47 47.85, 1.28 0.1 M0.41 82.45 C-0.95 57.78, -1.47 31.49, 0.21 0.27" stroke="#000000" stroke-width="1" fill="none"></path></g><g transform="translate(366.1884053492324 325.13208187219334) rotate(0 67.5 12.5)"><text x="67.5" y="18" font-family="Virgil, Segoe UI Emoji" font-size="20px" fill="#000000" text-anchor="middle" style="white-space: pre;" direction="ltr">User</text></g><g stroke-linecap="round" transform="translate(802.1884053492324 301.63208187219334) rotate(0 70 41.5)"><path d="M0 0 C0 0, 0 0, 0 0 M0 0 C0 0, 0 0, 0 0 M-0.7 6.86 C1.12 4.44, 3.46 2.39, 5.51 0.14 M-0.37 6.16 C1.75 4.39, 3.97 1.72, 4.77 0.44 M-0.62 13.06 C2.58 8.73, 6.26 4.74, 10.33 1.53 M0.23 11.46 C2.33 8.27, 5.39 4.72, 11.25 -0.36 M1.61 19.63 C5.83 10.81, 12.86 4.51, 16.55 -1.59 M0.72 19.34 C4.01 14.36, 7.4 8.45, 16.36 1.1 M-0.57 24.45 C3.81 20.31, 9.4 11.72, 22.23 -0.83 M-0.6 24.21 C4.9 19.68, 9.22 14.32, 20.54 -0.39 M-1.76 32.02 C6.21 24, 11.04 16.55, 25.75 1.01 M-0.94 29.91 C4.5 23.14, 10.95 16.98, 25.67 -0.08 M-1.36 35.22 C14.03 23.11, 25.25 8.97, 30.6 1.26 M-0.95 36.1 C7.62 27.88, 13.17 21.46, 31.06 0.4 M0.59 41.49 C10.81 31.2, 16.86 21.38, 38.4 -0.57 M-0.8 43.5 C14.65 27.07, 27.1 12.02, 36.15 0.23 M-0.11 50.68 C15.37 29.88, 31.38 13.79, 40.56 -1.22 M-0.36 49.34 C14.52 32.36, 27.58 17.65, 41.6 0.5 M-0.9 53.39 C20.21 31.5, 38.46 12.77, 47.41 0.02 M1.18 55.3 C17.78 32.79, 35.81 13.84, 47.84 -0.53 M0.7 60.68 C17.34 40.64, 32.13 21.37, 51.78 -1.13 M-0.06 60.73 C20.56 38.13, 40.32 14.47, 54.11 -0.3 M-1.97 66.37 C22.33 43.57, 42.72 18.93, 58.17 -0.28 M-0.34 66.5 C12.36 52.36, 25.42 38.27, 59.06 -0.71 M-0.3 72.92 C24.32 48.28, 47.15 18.86, 62.35 1.24 M-0.36 72.54 C13.57 56.94, 27.72 41.54, 63.79 -0.98 M-1.98 81.36 C18.97 57.19, 36.66 38.46, 68.48 2.02 M0.52 79.22 C26.3 47.52, 52.94 16.41, 68.42 -0.43 M0.6 84.86 C24.22 55.81, 49.42 28.26, 72.78 -1.84 M1.38 84.53 C26.26 53.98, 52.09 22.78, 75.14 0.69 M6.76 82.6 C30.53 57.66, 50.9 31.44, 80.59 0.96 M7.55 83.53 C29.55 57.95, 50.55 32.08, 78.8 0.4 M12.08 82.75 C40.35 52.18, 66.47 19.7, 86.05 -1.53 M10.61 84.84 C33.71 60.7, 54.4 35.8, 85.93 0.16 M17.83 84.7 C35.18 62.83, 52.78 42.97, 89.18 1.17 M17.27 84.51 C40.79 58.11, 63.11 30.8, 89.36 0.09 M20.22 85.27 C48.78 52.43, 80.55 17.32, 95.55 -0.45 M22.03 83.73 C45.62 55.76, 70.81 29.61, 95.23 0.1 M25.96 84.32 C51.53 57.43, 74.37 28.24, 101.37 1.81 M28.18 84 C47.87 61.04, 67.74 38.33, 101.57 -0.84 M33.41 82.36 C58.1 51.83, 86.29 20.7, 105.12 -0.63 M32.45 84.36 C49.93 64.61, 68.04 42.37, 105.36 0.4 M40.22 82.17 C66.91 50.59, 94.32 17.2, 112.71 0.63 M37.99 84.51 C65.83 51.23, 93.67 19.7, 111.13 0.37 M44.45 82.49 C60.85 62.78, 82.8 38.84, 116.39 1.21 M42.99 84.09 C72.51 50.71, 101.19 17.03, 115.3 0.92 M48.15 83.53 C71.99 54.7, 98.63 26.71, 123.2 1.92 M49.7 83.77 C73.27 56.74, 95.88 28.52, 122.07 0.68 M54.58 84.72 C77.86 56.3, 100.09 29.11, 127.37 -1.37 M55.02 84.51 C81.38 50.77, 110.1 19.6, 127.26 0.48 M59.72 82.22 C78.93 63.6, 97.46 41.96, 133.28 0.56 M59.57 82.72 C86.84 55.42, 112.41 25.53, 132.68 -0.73 M65.48 82.66 C91.04 51.06, 120.14 18.85, 136.58 0.03 M64.22 83.44 C81.78 65.85, 97.15 46.64, 136.76 -0.63 M71.31 84.65 C89.86 59.89, 110.56 36.98, 142.5 -0.52 M71.17 83.54 C86.15 67.18, 100.15 50.84, 142.22 1.07 M75.28 84.49 C95.78 60.11, 119.85 35.27, 143.02 9.18 M74.53 84.91 C98.4 55.64, 121.71 29.46, 140.7 7.91 M81.77 81.77 C103.79 57.94, 125.19 33.3, 140.3 11.73 M81.34 83.62 C101.97 57.62, 125.55 32.46, 141.66 12.74 M86.54 84.96 C96.61 68.71, 113.27 55.64, 141.36 19.82 M86.18 83.16 C99.55 68.84, 111.97 55.09, 142.46 19.05 M91.72 85.85 C107.21 66.58, 125.43 46.24, 140.95 26.04 M91.54 84.32 C100.59 70.97, 111.76 60.06, 140.68 26.32 M98.24 85.36 C107.12 70.21, 122.28 57.85, 141.99 32.76 M95.69 84.66 C110.69 67.14, 127.23 49.52, 141.99 31.48 M102.19 83.47 C117.71 66.37, 132.05 49.71, 139.95 38.02 M102.48 83.95 C113.12 72.7, 122.79 58.39, 141.99 38.36 M105.82 85.55 C117.74 70.69, 133.06 55.82, 141.82 45.89 M107.83 84.09 C120.08 69.04, 132.43 55.93, 142.61 43.61 M110.67 84.03 C121.94 71.05, 132.7 60.03, 143.25 52.1 M112.2 84.32 C125.03 70.99, 136.32 57.93, 142.65 49.89 M117.16 83.97 C126.05 75.56, 130.87 66.65, 139.52 58.42 M117.69 84.37 C123.06 78.06, 130.29 71.2, 142.24 55.83 M121.75 84.74 C129.22 76.88, 134.43 69.71, 141.93 62.52 M122.64 83.69 C129.51 78.17, 136.01 70.2, 142.63 61.42 M128.56 85.59 C131.06 80.79, 136.3 74.23, 142.2 67.88 M128.63 84.6 C133.32 79.51, 136.29 74.15, 142.07 69.49 M134.12 83.67 C135.4 81.3, 136.61 79.48, 142.95 74.21 M133.21 83.77 C136.17 81.28, 139.34 77.8, 142.13 73.92 M139.45 83.47 C140.18 83.35, 140.67 82.7, 141.68 81.17 M138.95 83.9 C140.17 82.74, 141.29 81.65, 141.92 80.94" stroke="#82c91e" stroke-width="0.5" fill="none"></path><path d="M1.71 -1.79 C46.96 0.94, 95.92 -0.58, 138.34 1.77 M0.89 -0.92 C44.3 0.06, 90.34 1.88, 140.21 0.27 M138.37 1.79 C141.31 23.42, 137.79 45.33, 139.1 82.86 M140.09 -0.29 C140.62 21.84, 140.98 44.78, 139.51 83.14 M140.99 81.34 C92.92 84.01, 43.68 82.15, 1.43 81.4 M140.44 83.04 C97.18 83.35, 56.33 82.3, -0.32 82.42 M0.17 84.24 C1.26 61.75, -0.15 42.47, 0.57 -0.39 M0.2 83.2 C-0.29 55.34, -0.01 28.23, 0.12 0.92" stroke="#000000" stroke-width="1" fill="none"></path></g><g transform="translate(807.1884053492324 330.63208187219334) rotate(0 65 12.5)"><text x="65" y="18" font-family="Virgil, Segoe UI Emoji" font-size="20px" fill="#000000" text-anchor="middle" style="white-space: pre;" direction="ltr">Session</text></g><g stroke-linecap="round" transform="translate(629.1884053492324 320.63208187219334) rotate(0 36.5 22.5)"><path d="M0.24 22.73 C0.24 22.73, 0.24 22.73, 0.24 22.73 M0.24 22.73 C0.24 22.73, 0.24 22.73, 0.24 22.73 M2.76 24.18 C4.37 22.86, 6.59 20.39, 11.8 16.43 M3.05 24.8 C5.29 22.37, 7.63 20.17, 11.9 15.52 M7.65 25.5 C13.3 23.4, 14.22 15.67, 21.62 6.94 M6.56 28.07 C11.15 21.25, 16.22 15.26, 24.15 8.52 M11.97 27.47 C16.47 21.57, 24.85 9.64, 35.84 -0.21 M11.11 28.65 C16.03 23.18, 20.29 17.58, 35.7 0.81 M13.45 32.36 C18.79 24.9, 23.12 20.36, 40.7 2.77 M14.25 31.47 C20.34 23.3, 27.02 17.1, 39.42 1.29 M16.22 34.12 C25.5 22.75, 36.06 12.69, 43.6 3.03 M17.93 34.58 C23.95 25.93, 29.22 18.59, 43.56 3.34 M20.77 37.06 C28.09 27.34, 39.4 17.64, 44.42 5.26 M20.22 35.56 C27.41 28.36, 32.75 21.77, 46.59 6.03 M23.69 38.8 C32.06 30.11, 38.91 20.75, 51.02 9.07 M24.52 37.9 C33.62 27.02, 42.06 15.78, 50.34 8.87 M27.2 38.35 C34.9 31.3, 45.48 17.56, 51.58 11.09 M26.77 40.57 C33.54 32.79, 39.24 25.76, 53.87 11.41 M32.79 40.26 C42.05 31.24, 48.01 20.94, 56.17 13.11 M30.57 41.51 C38.68 33.55, 44.99 25.76, 56.61 12.79 M36.88 45.46 C40.95 37.28, 50.57 26.64, 58.39 14.19 M34.43 44.03 C40.96 38.79, 45.43 32.12, 59.56 15.25 M36.44 47.44 C46.48 39.5, 53.43 30.14, 62.35 18.3 M38.97 46.31 C43.64 39.95, 50 32.08, 63.83 17.28 M50.43 39.24 C54.53 32.67, 62.38 26.03, 67.58 18.68 M49.86 39.94 C53.81 34.2, 57.53 29.78, 67.14 19.36 M60.25 31.69 C62.58 28.76, 64.47 27.38, 71.54 21.45 M61.44 31.56 C64.72 27.65, 68.5 24.05, 70.34 21.15" stroke="#868e96" stroke-width="0.5" fill="none"></path><path d="M36.61 0.67 C45.82 8.18, 57.39 13.16, 71.5 23.06 M37.92 0.74 C45.7 5.9, 55.98 12.12, 72.46 23.12 M72.5 21.74 C61.51 27.56, 50.31 34.14, 35.67 43.99 M73.89 23.46 C61.84 30.49, 48.7 38.32, 36.5 45.17 M36.46 46.35 C24.73 40.03, 13.06 30.19, 0.35 24.27 M37.21 44.76 C23.5 36.52, 7.88 28.34, -0.22 23.03 M1.96 22.63 C13.33 17.27, 24.55 6.56, 35.28 -0.71 M-0.4 23.97 C9.43 18.18, 17.75 12.89, 36.94 -0.17" stroke="#000000" stroke-width="1" fill="none"></path></g><g stroke-linecap="round"><g transform="translate(507.1884053492324 337.8904380928029) rotate(0 61.6324747457881 3.2210798865189645)"><path d="M-0.33 0.51 C19.75 1.28, 100.98 4.59, 121.47 5.73 M1.7 -0.27 C22.04 1.13, 103.57 5.78, 123.6 6.71" stroke="#000000" stroke-width="1" fill="none"></path></g></g><g stroke-linecap="round"><g transform="translate(703.9086229007665 341.52235849270846) rotate(0 47.698415182781844 -0.11931930337505037)"><path d="M-0.82 1.04 C15.14 0.92, 80.01 -0.96, 96.22 -1.27 M0.95 0.53 C16.71 0.65, 79.45 0.15, 95.25 0.15" stroke="#000000" stroke-width="1" fill="none"></path></g></g><g transform="translate(582.1884053492324 312.63208187219334) rotate(0 3 12.5)"><text x="0" y="18" font-family="Virgil, Segoe UI Emoji" font-size="20px" fill="#000000" text-anchor="start" style="white-space: pre;" direction="ltr">1</text></g><g transform="translate(729.1884053492324 307.63208187219334) rotate(0 5 12.5)"><text x="0" y="18" font-family="Virgil, Segoe UI Emoji" font-size="20px" fill="#000000" text-anchor="start" style="white-space: pre;" direction="ltr">n</text></g><g stroke-linecap="round" transform="translate(179.78348687470924 539.5712562159288) rotate(0 69.5 45.5)"><path d="M0 0 C0 0, 0 0, 0 0 M0 0 C0 0, 0 0, 0 0 M-0.55 5.85 C1.34 4.3, 2.89 2.5, 4.99 0.72 M-0.14 6.26 C0.98 5.18, 2.09 3.3, 5.33 0.58 M0.19 11.35 C4.48 7.47, 7.39 2.66, 11.45 0.84 M0.43 12.28 C3.13 9.87, 4.25 6.61, 11.25 0.23 M-1.77 19.8 C2.71 14.04, 5.81 8.99, 14.97 2.22 M-0.92 17.95 C3.71 14.51, 8.43 8.14, 16.34 1.26 M1.92 25.4 C6.46 15.77, 15.51 6.84, 22.72 1.49 M-0.46 24.68 C7.61 14.23, 16.68 5.69, 21.41 -0.71 M1.27 30.17 C3.68 24.81, 11.87 19.33, 25.56 0.64 M-0.47 29.96 C7.46 21.17, 15.56 13.04, 26.86 0.32 M-1.77 35.51 C6.61 26.81, 16.51 19.7, 30.44 -0.81 M0.45 36.6 C9.89 26.94, 19.47 15.51, 32.05 0.76 M0.92 43.14 C12.81 26.74, 30.05 9.38, 37.54 1.3 M-0.04 43.22 C12.67 26.57, 27.27 11.2, 37.61 0.68 M-0.16 50.14 C9.4 36.39, 20.46 25.79, 41.71 0.54 M-0.6 49.53 C15.15 31.58, 32.98 13.09, 43.09 -0.15 M0.68 54.48 C13.15 41.52, 24.97 25.01, 49.41 -1.27 M0.79 55.2 C16.23 35.5, 31.51 17.92, 47.15 0.85 M1.21 61.93 C14.49 43.82, 27.2 31.25, 52.13 -1.28 M1 60.99 C13.58 43.47, 29.54 27.87, 53.17 -0.88 M0.12 67.5 C9.71 51.54, 24.68 39.08, 59.37 -0.76 M0.71 67.52 C20.03 43.48, 41.29 18.58, 57.44 0.14 M1.18 74.58 C26.5 45.56, 51.1 17.19, 64.02 -0.32 M-0.1 72.65 C16.11 52.97, 32.88 34.13, 62.82 -0.56 M-0.51 80.01 C23.1 54.93, 42.83 30.62, 67.35 -1.08 M0.25 79.86 C18.43 59.12, 34.7 38.59, 68.84 -0.24 M0.29 85.57 C22.9 56.47, 44.69 33.9, 76.41 0.15 M1.15 86.02 C22.68 61.34, 42.83 37.86, 73.46 -0.92 M1.81 90.87 C26.7 60.64, 50.76 32.15, 80.99 1.67 M0.86 91.55 C31.4 57.07, 62.06 20.51, 79.1 -0.22 M4.06 90.1 C33.19 59.01, 59.65 29.87, 83.05 1.67 M6.41 91.42 C24.75 69.75, 43.36 47.1, 84.4 0.65 M11.95 90.92 C36.76 60.48, 59.67 31.72, 89.66 1.12 M11.03 91.43 C35.24 62.37, 59.11 33.93, 90.34 0.09 M14.49 91.21 C33.71 70.11, 51.4 49.16, 94.42 0.52 M16.52 91.1 C45.71 55.76, 77.17 19.87, 95.86 0.11 M22.51 89.89 C37.02 70.88, 57.26 49.55, 102.44 -1.27 M21.17 91.87 C52.24 55.27, 82.42 20.37, 100.08 -0.51 M28.04 89.75 C44.03 70.65, 58.68 53.84, 107.72 -2.22 M26.43 90.17 C50.56 65.47, 73.04 37.45, 105.92 -0.19 M31.3 90.25 C54.38 64.73, 75.04 42.11, 110.14 1.71 M32.05 91.51 C56.89 61.97, 82.91 33.48, 112.26 0.6 M36.12 90.33 C57.17 68.54, 80.17 41.25, 116.2 2.08 M36.75 91.58 C58.87 67.6, 78.6 43.47, 116.92 0.17 M40.87 93.23 C70.73 56.21, 99.87 23.12, 123.28 1.07 M43.35 90.34 C63.08 68.02, 84.98 42.97, 122.16 0.93 M49.9 89.31 C72.98 62.13, 98.06 31.79, 125.8 0.54 M47.47 91.13 C77.2 58.89, 105.45 25.11, 127.05 -0.25 M52.48 92.85 C81.73 61.67, 108.53 29.06, 134.09 1.59 M52.64 90.74 C74.84 66.54, 97.59 40.47, 133.49 -0.18 M58.23 92.85 C78.26 67.61, 97.24 44.14, 137.22 1.36 M58.98 90.51 C85.4 59.25, 112.71 28.24, 137.4 0.71 M64.08 89.9 C85.81 67.04, 107.99 39.76, 140.57 2.1 M64.36 90.43 C87.32 66.31, 110.73 39.42, 141.37 1.75 M69.69 90.9 C90.27 70.55, 107.3 48.9, 139.96 8.27 M69.05 90.23 C94.71 60.8, 122.56 29.07, 141.09 8.36 M76.39 89.97 C100.41 60.4, 125.6 30.63, 141.83 12.49 M74.86 91.48 C97.66 63.66, 122.54 35.29, 140.71 14.34 M77.94 91.93 C95.91 72.34, 113.63 52.57, 140.78 22 M79.19 91.43 C96.65 72.82, 111.51 53.85, 140.63 21.56 M86.8 89.42 C101.3 70.91, 120.46 50.04, 139.79 25.09 M85.38 91.34 C104.81 67.84, 123.72 46.82, 140.91 26.72 M90.3 89.94 C101.61 78.34, 113.21 66.3, 140.43 32.28 M90.26 91.85 C101.86 77.68, 113.83 65.18, 141.7 31.77 M95.45 89.4 C108.74 76.13, 117.61 63.83, 141.58 39.79 M95.05 91.8 C109.76 76.59, 123.12 59.79, 141.23 37.68 M101.86 90.96 C112.18 80.27, 123.2 66.68, 142.47 46.41 M101.57 91.34 C116.71 72.77, 131.94 54.54, 140.98 44.59 M107.19 89.82 C112.54 82.54, 122.79 73.74, 141.37 53.04 M105.87 92.02 C114.77 80.37, 124.52 70.98, 141.67 51.62 M112.08 92.05 C124.63 78.86, 134.18 65.06, 141.86 55.74 M110.44 91.88 C119.04 84, 124.38 76.71, 141.69 57.22 M117.59 91.39 C121.95 84.34, 127.92 78.78, 141.03 64.81 M117.77 91.53 C122.55 84.84, 128.19 78.92, 140.57 62.54 M122.14 92.07 C126.9 82.36, 135.23 76.97, 142.26 70.36 M122.6 91.28 C127.26 85.7, 134.61 78.11, 141.94 68.22 M126.93 89.61 C131.39 85.33, 139.25 77.8, 140.16 77.1 M127.53 91.19 C131.25 87.53, 133.49 84.29, 141.71 75.56 M132.8 90.25 C136.01 87.62, 137.66 86.5, 141.28 81.8 M132.96 91.93 C136.35 87.94, 138.76 84.08, 141.08 81.39 M138.21 91.42 C139.68 89.75, 140.04 88.69, 141.31 87.65 M138.11 90.81 C138.81 90.09, 139.63 89.39, 141.59 87.14" stroke="#82c91e" stroke-width="0.5" fill="none"></path><path d="M0.63 -1.17 C32.9 -0.99, 65.45 0.07, 138.74 -0.99 M0.99 -0.13 C41.89 0.18, 84.2 0.05, 138.39 -0.38 M138.01 0.01 C140.5 23.68, 139.39 50.12, 139.71 92.28 M139.04 -0.44 C138.71 31.51, 139.24 61.58, 139.51 91.66 M140.66 91.57 C91.76 91.73, 40.32 89.49, -1.75 91.25 M139.62 90.71 C96.43 90.65, 52.74 91.76, -0.58 90.73 M-0.06 90.33 C0.71 61.45, 2.14 29.34, 0.24 0.44 M-0.83 91.13 C-1.12 68.73, -1.62 46.86, 0.26 -0.91" stroke="#000000" stroke-width="1" fill="none"></path></g><g transform="translate(184.78348687470924 572.5712562159288) rotate(0 64.5 12.5)"><text x="64.5" y="18" font-family="Virgil, Segoe UI Emoji" font-size="20px" fill="#000000" text-anchor="middle" style="white-space: pre;" direction="ltr">Follow</text></g><g stroke-linecap="round" transform="translate(307.1884053492324 445.63208187219334) rotate(0 28 20.5)"><path d="M-0.1 21.11 C-0.1 21.11, -0.1 21.11, -0.1 21.11 M-0.1 21.11 C-0.1 21.11, -0.1 21.11, -0.1 21.11 M5.17 21.74 C5.98 18.93, 9.84 15.68, 13.54 11.87 M4.3 22.95 C7.13 19.98, 9.76 16.5, 13.47 10.35 M7.54 26.26 C10.12 22.12, 15.03 14.6, 27.34 -1.19 M6.42 24.64 C15.83 15.26, 22.75 6.65, 29.72 0.86 M9.9 28.13 C14.69 19.01, 22.58 12.9, 30.33 0.83 M10.3 27.87 C15.17 23.04, 19.93 17.89, 32.53 1.91 M14.19 28.65 C20.13 23.17, 29.42 13.69, 36.24 6 M12.8 31.07 C20.39 22.87, 26.25 14.89, 35.92 5.74 M14.47 32.65 C18.95 28.14, 26.2 23.19, 37.27 8.02 M16.18 32.86 C22.94 23.94, 31.43 15.99, 38.54 8.06 M18.1 33.76 C29.12 25.11, 34.91 14.38, 42.66 8.97 M19.36 34.87 C26.88 27.36, 34.03 19.94, 41.32 8.72 M22.67 37.24 C26.2 31.31, 33.81 24.23, 44.2 13.11 M22.01 36.89 C29.5 27.77, 37.55 20.3, 45.27 12.78 M25.41 40.74 C36.74 28.66, 43.03 20.53, 46.4 15.15 M26.24 38.86 C33.25 31.63, 40.59 22.84, 46.84 15.11 M28.21 41.18 C38.21 34.67, 44.48 28.37, 52.03 18.15 M28.74 42.08 C34.51 36.14, 40.19 30.65, 49.71 17.45 M45.72 30.7 C47.2 28.33, 49.27 23.89, 53.8 20.4 M43.84 30.46 C47.79 26.57, 50.52 23.24, 53.69 19.89" stroke="#868e96" stroke-width="0.5" fill="none"></path><path d="M29.15 -0.4 C36.86 6.07, 42.8 13.22, 57.67 20.94 M28.01 0.95 C39.5 7.79, 49.64 14.81, 56.79 20.19 M56.71 19.16 C46.37 29.51, 35.17 36.41, 29.23 41.56 M55.26 20.33 C48.75 27.06, 41.67 31.74, 28.04 41.62 M28.9 39.37 C23.74 37.77, 18.01 33.78, 1.44 20.89 M29.98 41.93 C19.81 36.06, 11.32 29.62, 0.01 20.38 M-1 22.85 C6.9 15.87, 13.68 10.76, 28.3 0.03 M-0.65 20.7 C11.18 13.38, 21.13 5.07, 29.94 -0.02" stroke="#000000" stroke-width="1" fill="none"></path></g><g transform="translate(634.1884053492324 330.63208187219334) rotate(0 31.5 12.5)"><text x="31.5" y="18" font-family="Virgil, Segoe UI Emoji" font-size="20px" fill="#000000" text-anchor="middle" style="white-space: pre;" direction="ltr">has</text></g><g transform="translate(312.1884053492324 453.63208187219334) rotate(0 23 12.5)"><text x="23" y="18" font-family="Virgil, Segoe UI Emoji" font-size="20px" fill="#000000" text-anchor="middle" style="white-space: pre;" direction="ltr">has</text></g><g stroke-linecap="round"><g transform="translate(402.888105351204 379.63208187219334) rotate(0 -25.543251648374806 33.461153119848575)"><path d="M-0.51 -0.01 C-9.03 11.08, -43.09 55.27, -51.35 66.44 M1.43 -1.07 C-7.27 10.24, -43.89 56.97, -52.51 67.99" stroke="#000000" stroke-width="1" fill="none"></path></g></g><g transform="translate(390 425) rotate(0 3 12.5)"><text x="0" y="18" font-family="Virgil, Segoe UI Emoji" font-size="20px" fill="#000000" text-anchor="start" style="white-space: pre;" direction="ltr">1</text></g><g stroke-linecap="round"><g transform="translate(322.41992505051013 488.17442300774746) rotate(0 -15.805019325647471 19.567073406611428)"><path d="M-1.02 -0.76 C-6.23 5.75, -26.45 33.34, -31.75 39.9 M0.65 1.45 C-4.6 7.58, -26.53 31.94, -32.26 38.34" stroke="#000000" stroke-width="1" fill="none"></path></g></g><g stroke-linecap="round" transform="translate(502 546.9999999999999) rotate(0 96 44.5)"><path d="M0 0 C0 0, 0 0, 0 0 M0 0 C0 0, 0 0, 0 0 M0.42 7.13 C1.62 5.04, 2.05 2.88, 4.7 -0.41 M0.03 6.66 C0.8 4.87, 2.09 3.43, 4.91 0.25 M0 13.1 C3.25 7.94, 8.17 3.37, 9.97 -1 M0.55 12.39 C4.6 7.04, 7.41 2.92, 10.83 -0.02 M0 17.31 C5.53 10.61, 10.45 5.87, 15.74 -1.58 M-0.7 18.42 C6.74 10.69, 12.48 4.6, 15.27 0.57 M-0.3 23.91 C6.8 17.16, 15.35 7.3, 21.1 0.66 M0.47 23.58 C4.62 17.41, 11.97 11.92, 21.39 -0.19 M0.91 30.78 C8.39 20.58, 16.84 11.5, 25.93 2.18 M0.33 31.13 C9.54 18.29, 21.74 6.81, 25.63 0.78 M-1.47 36.17 C9.81 21.91, 22.54 8.81, 31.3 1.26 M-1.06 37.86 C11 22.44, 23.49 8.57, 32.73 -0.92 M1.42 43.46 C13.33 28.65, 26.39 12.87, 34.89 0.02 M0.28 41.83 C8.43 31.9, 16.05 22.02, 37.59 1.24 M-0.81 47.58 C11.6 35.9, 26.07 18.12, 43.06 0.52 M-0.56 49.04 C14.84 31.16, 28.61 15.27, 42.67 0.14 M1.6 55.92 C13.94 36.66, 31.94 18.68, 46.41 -1 M1.25 55.56 C16.11 37.33, 28.89 20.73, 47.76 -0.61 M-1.81 62.56 C11.18 46.16, 23.96 36.04, 51.84 -1.94 M0.19 59.97 C16.28 41.55, 32.95 21.44, 53.37 0.74 M1.61 69.18 C16.91 45.6, 38.91 22.73, 58.11 0.85 M-0.96 67.5 C17.83 46.32, 35.35 26.07, 58.57 0.53 M-1.48 71.49 C20.2 47.05, 45.75 21.5, 63.89 -0.75 M-0.03 72.67 C26.41 43.51, 50.46 14.83, 64.33 -0.98 M-1.61 79.71 C11.48 61.87, 25.94 44.65, 67.35 0.07 M0.76 78.97 C15.97 59.84, 33.05 41.69, 69.34 0.87 M-1.07 85.46 C24.75 56.82, 44.11 34.31, 74.21 1.19 M0.4 86.01 C18.96 63.55, 37.26 42.34, 75.4 0.49 M0.97 88.47 C18.79 72.2, 36.69 50.77, 81.3 1.83 M1.27 89.42 C28.15 57.89, 57.14 27, 79.23 0.5 M5.85 91.5 C31.71 62.05, 58.59 35.34, 84.62 -1.34 M6.84 90 C26.67 67.54, 46.07 46.17, 85.81 -0.92 M12.4 89.83 C29.49 68.72, 47.9 45.33, 90.9 0.05 M11.95 90.41 C32.06 65.28, 53.15 41.43, 90.26 0.41 M18.28 89.66 C46.6 59.57, 72.75 28.3, 93.68 -1.8 M16.35 89.81 C42.15 60.61, 68.53 32.26, 95.14 0.08 M23.46 89.5 C39.69 72.29, 56.56 53.41, 100.86 -0.64 M23.52 90.48 C53.53 54.36, 83.5 20.99, 100.33 -0.52 M25.74 90.47 C46.4 70.3, 60.04 52.5, 106.76 0.03 M28.51 90.28 C52.54 59.67, 79.16 29.5, 106.33 -0.8 M32.88 88.36 C53.32 66.97, 75.09 41.72, 111.69 1.12 M33.24 90.02 C55.33 63.36, 78.66 36.88, 112.17 -0.53 M38.1 91.91 C57.94 69.98, 75.37 48.32, 117.35 0.88 M38.38 89.89 C60.55 64.35, 84.12 37.4, 116.03 0.28 M44.18 90.97 C62.14 66.27, 82.23 47.64, 121.67 1.38 M44.71 88.82 C74.52 53.22, 105.36 19.15, 122.4 0.04 M47.02 90.68 C65.45 69.35, 82.18 50.68, 127.68 0.92 M48.89 90.96 C75.21 59.98, 99.94 31.93, 126.2 1.28 M55.66 91.65 C78.75 60.13, 106.67 31.32, 132.88 0.94 M54.9 89.03 C71.82 69.42, 91.31 47.22, 132.47 -0.26 M59.93 88.18 C79.29 66.48, 98.92 44.97, 138.81 2.28 M59.81 90.74 C85.86 59.55, 112.86 27.97, 137.2 -0.17 M66.41 88.41 C82.18 69.2, 98.42 50.8, 145.14 -0.7 M65.15 90.2 C82.65 68.37, 100.92 49.57, 143.71 -1 M70.06 88.55 C94.91 64.18, 115.43 36.97, 147.22 0.09 M70.77 90.35 C95.54 60.91, 120.47 32.49, 147.42 1.18 M74.27 89 C106.29 53.99, 138.68 18.37, 154.1 0.68 M76.15 90.29 C97.52 64.43, 118.2 41.54, 154.3 -0.84 M82.41 88.63 C100.76 69.73, 116.58 47.62, 158.17 1.18 M80.27 89.8 C101.47 66.63, 124.21 41.66, 159.6 0 M85.24 89.62 C103.05 67.98, 122.92 48.19, 165.16 0.03 M86.29 91.39 C112.57 59.7, 138.56 29.94, 164.28 -0.57 M91.77 91.99 C121.05 57.4, 152.06 22.75, 167.72 2.11 M90.67 89.01 C111.18 67.48, 131.24 45.37, 169.82 -0.69 M98.06 89.95 C117.86 65.26, 139.21 42, 175.51 1 M97.29 89.72 C123.32 59.41, 149.88 28.45, 174.55 -0.07 M100.69 90.92 C132.4 54.98, 163.06 18.3, 180.71 -0.86 M101.17 90.78 C128.16 60.55, 154.37 32.27, 180.54 -0.45 M106.28 91.64 C134.16 59.88, 161.33 26.15, 184.12 -2.01 M107.26 91.14 C123.8 70.59, 142.66 49.87, 185.88 0.66 M113.54 88.42 C140.56 58.1, 169.01 23.96, 188.73 -1.73 M112.85 89.79 C132.56 67.9, 151.28 45.44, 191.58 -0.46 M118.87 89.3 C139.6 62.56, 164.33 38.9, 195.78 0.35 M118.34 91.18 C138.14 65.67, 160 42.02, 193.92 2.78 M122.42 88.22 C145.01 61.68, 170.59 34.16, 192.96 9.49 M123.64 89.62 C149.03 60.55, 174.09 32.46, 193.91 7.79 M129.62 89.26 C143.34 72.61, 157.83 54.71, 196.45 13.45 M129 90.72 C142.48 74.87, 154.93 59.26, 193.58 14.6 M133.26 88.76 C155.49 62.89, 175.94 39.56, 192.53 19.72 M133.34 89.74 C151.01 69.74, 167.96 52.37, 194.97 20.38 M139.06 91.57 C151.15 78.26, 164.68 64.11, 194.99 26 M139.1 91.06 C155.17 72.24, 170.17 53.9, 193.73 26 M143.74 89.2 C156 77.36, 166 65.14, 194.66 32.33 M144.59 90.51 C156.36 76.4, 168.67 63.19, 193.96 31.53 M148.54 92.02 C160.18 76.31, 173.74 65.42, 192.83 40.04 M148.84 90.87 C158.68 79.16, 168.53 69.31, 193.92 39.3 M153.33 91.43 C171.02 71.93, 185.45 55.06, 194.09 44.18 M155.91 90.19 C169.08 73.91, 182.25 59.45, 194.12 43.62 M158.15 92.08 C171.03 75.89, 181.11 65.37, 193.16 52.01 M159.78 89.24 C167.43 80.9, 175.02 73.8, 194.5 51.43 M165.29 90.04 C174.26 80.75, 178.13 74.16, 194.33 55.85 M166.66 89.91 C174.28 79.68, 181.93 70.03, 195.07 56.43 M168.81 88.97 C176.53 81.83, 180.44 77.37, 194.99 63.36 M169.86 90.62 C180.26 79.47, 189.08 68.57, 193.76 63.5 M176.64 90.34 C181.89 81.8, 186.21 75.95, 193.04 70.4 M176.08 90.71 C181.58 84.62, 185.53 80.05, 193.12 68.87 M180.17 89.61 C184.39 87.21, 186.6 82.97, 193.75 75.51 M182.34 89.87 C187.19 84.15, 190.62 80.16, 195.45 74.75 M187.68 90.08 C188.34 87.5, 191.08 86.63, 194.44 80.82 M186.6 90.15 C188.64 87.33, 190.37 85.79, 194.61 81.18" stroke="#82c91e" stroke-width="0.5" fill="none"></path><path d="M0.18 -1.06 C43.77 2.65, 86.76 2.2, 193.51 -0.17 M0.86 -0.03 C54 -0.65, 105.82 -0.4, 192.11 -0.58 M192.7 -1.84 C190.27 19.86, 189.69 38.1, 192.55 88.67 M191.69 -0.65 C191.46 24.08, 192.62 47.33, 191.14 89.19 M193.16 88.02 C131.66 88.71, 67.89 89.12, -0.27 90.98 M191.24 88.16 C125.18 88.33, 57.16 89.27, -0.38 89.16 M1.12 87.06 C-1.92 64.01, 1.11 42.03, -1.09 -1.77 M-0.19 88.4 C-0.25 53.9, 0.22 17.77, -0.02 0.29" stroke="#000000" stroke-width="1" fill="none"></path></g><g transform="translate(507 578.9999999999999) rotate(0 91 12.5)"><text x="91" y="18" font-family="Virgil, Segoe UI Emoji" font-size="20px" fill="#000000" text-anchor="middle" style="white-space: pre;" direction="ltr">Like</text></g><g stroke-linecap="round" transform="translate(501 448) rotate(0 31 18.5)"><path d="M0.22 18.74 C0.22 18.74, 0.22 18.74, 0.22 18.74 M0.22 18.74 C0.22 18.74, 0.22 18.74, 0.22 18.74 M2.15 20.84 C6.27 18.67, 8.63 15.18, 11.92 12.87 M3.75 21.13 C6.15 18.68, 9.31 15.14, 10.63 12.56 M5.11 22.35 C10.19 15.56, 17.55 13.38, 20.3 4.95 M7.22 23.5 C11.57 19.4, 15.19 12.9, 21.84 5.64 M9.94 26.92 C15.26 18.36, 20.44 12.23, 33 1.16 M10.51 25.07 C17.31 18.14, 22.68 10.59, 32.58 0.1 M13.07 26.53 C21.18 19.43, 28.93 12.77, 37.48 1.57 M14.2 27.52 C21.66 17.82, 29.98 8.31, 35.98 2.71 M16.63 27.99 C24.67 23.36, 29.33 16.79, 37.1 6.08 M18.88 29.83 C25.61 21.6, 30.84 13.58, 38.31 5.57 M19.94 31.43 C30.02 19.94, 37.57 12.88, 41.52 6.48 M21.89 30.3 C27.2 23.9, 34.18 17.44, 41.68 6.12 M25 31.84 C32.62 25.99, 41.19 15.23, 44.8 11.02 M24.06 34.32 C28.85 27.7, 34.23 20.62, 46.32 9.07 M27.33 34.84 C36.87 27.86, 40.05 19.61, 48.87 11.16 M28.72 35.48 C35.06 27.38, 42.63 19.06, 49.36 11.41 M30.22 38.1 C35.64 33.35, 39.67 27.93, 51.11 13.67 M31.23 37.18 C37.66 31.48, 42.16 25.83, 52.53 13.78 M42.74 30.74 C48.18 24.82, 51.54 20.93, 56.51 15.18 M43.16 31.45 C45.67 27.1, 50.57 22.69, 55.61 15.3 M55.17 23.32 C56.89 20.57, 58.11 18.77, 59.72 17.95 M54.3 23.22 C56.09 21.83, 57.73 20.02, 59.31 17.43" stroke="#ced4da" stroke-width="0.5" fill="none"></path><path d="M32.09 -0.28 C43.76 4.8, 52.62 14.31, 60.33 17.58 M31.5 0.84 C43.61 7.3, 56.31 15.46, 61.78 19.66 M60.42 20.04 C51.98 24.04, 43.46 30.27, 33.49 38.36 M62.6 19.95 C52.4 24.49, 44 29.45, 31.53 37.5 M32.29 35.26 C17.79 29.57, 8.04 22.78, -0.38 20.94 M31.43 36.38 C21.06 30.7, 8.07 24.19, -0.08 19.97 M-1.22 18.47 C12.96 12.95, 22.35 4.46, 32.98 -1.58 M-0.35 19.46 C8.32 14.21, 16.56 9.25, 31.45 0.22" stroke="#000000" stroke-width="1" fill="none"></path></g><g transform="translate(506 454) rotate(0 26 12.5)"><text x="26" y="18" font-family="Virgil, Segoe UI Emoji" font-size="20px" fill="#000000" text-anchor="middle" style="white-space: pre;" direction="ltr">has</text></g><g stroke-linecap="round"><g transform="translate(502 388) rotate(0 14.499150350093856 28.826549379825565)"><path d="M1.14 1.03 C5.79 10.56, 24.43 47.98, 28.72 57.13 M0.28 0.52 C4.77 9.75, 23.33 46.16, 28.14 55.61" stroke="#000000" stroke-width="1" fill="none"></path></g></g><g stroke-linecap="round"><g transform="translate(549.7653592622158 489.70812264660435) rotate(0 16.359413191834307 25.829424945516166)"><path d="M-0.35 0.81 C4.99 9.29, 27.38 43.06, 33.07 51.46 M1.67 0.2 C6.75 8.31, 26.79 41.76, 32.07 49.95" stroke="#000000" stroke-width="1" fill="none"></path></g></g><g transform="translate(549 412) rotate(0 3 12.5)"><text x="0" y="18" font-family="Virgil, Segoe UI Emoji" font-size="20px" fill="#000000" text-anchor="start" style="white-space: pre;" direction="ltr">1</text></g><g transform="translate(580 489) rotate(0 5 12.5)"><text x="0" y="18" font-family="Virgil, Segoe UI Emoji" font-size="20px" fill="#000000" text-anchor="start" style="white-space: pre;" direction="ltr">n</text></g><g stroke-linecap="round" transform="translate(10 199) rotate(0 65 33)"><path d="M0 0 C0 0, 0 0, 0 0 M0 0 C0 0, 0 0, 0 0 M0.26 5.87 C1.22 4.4, 2.22 3.36, 5.77 0.11 M-0.24 6.59 C0.95 4.81, 2.43 4, 5.2 -0.01 M0.11 10.81 C4.79 8.9, 5.98 4.64, 9.87 -0.18 M0.67 12.25 C3.88 7.86, 6.74 4.78, 10.04 0.69 M-1.59 17.75 C5.76 11.34, 13.61 3.94, 15.91 1.13 M0.28 19.04 C4.5 12.63, 8.46 8.98, 16.1 -0.39 M1.95 22.66 C6.91 18.91, 9.78 11.7, 20.64 0.88 M-0.19 23.84 C5.16 18.31, 12.19 11.41, 22.06 -0.31 M-0.46 29.7 C5.62 22.28, 13.42 16.37, 26.97 0.47 M0.58 31.46 C8.85 19.84, 16.98 10.62, 26.09 -0.12 M0.16 38.85 C11.96 24.41, 25.82 9.49, 30.19 1.8 M-0.95 35.88 C7.46 27.45, 15.87 18.73, 32.28 -1 M1.86 42.1 C10.26 30.29, 20.22 20.12, 37.32 1.45 M1.09 41.87 C13.02 28.28, 25.07 14.01, 36.36 0.38 M-1.41 49.85 C16.61 29.95, 33.5 9.13, 43.17 -1.17 M-0.94 49.72 C14.11 32.59, 28.75 17.63, 43.01 -0.76 M-0.42 55.86 C16.37 36.96, 32.39 16.06, 45.93 -1.56 M0.56 55.37 C10.02 43.06, 21.66 30.66, 47.69 1.11 M0.93 59.43 C18.66 39.39, 37.98 15.74, 51.19 -2.04 M0.24 60.8 C13.66 45.94, 26.23 30.56, 54.05 -0.77 M1.68 65.59 C16.49 45.44, 35.46 28.4, 59.55 -1.47 M1.14 67.47 C15.88 47.97, 32.5 30.35, 57.7 0.96 M5.22 64.52 C23.55 43.05, 44.76 20.56, 62.65 0.89 M6.44 65.92 C27.22 42.26, 47.63 19.51, 63.59 -0.82 M12.42 65.55 C24.24 51.07, 36.82 35.37, 70.72 -0.45 M11.8 67.01 C23.56 53.17, 34.26 39.59, 67.85 0.71 M16.06 65.06 C37.35 40.29, 56.86 18.02, 72.71 -0.96 M16.14 66.04 C33.1 46.87, 49.32 30.34, 75.15 -0.3 M21.87 67.87 C34.39 54.07, 48.34 39.43, 79.76 0.04 M21.9 67.35 C38.52 47.9, 54.08 28.92, 78.5 0.04 M26.54 65.5 C40.52 51.65, 52.33 37.35, 85.33 -0.43 M27.39 66.81 C40.99 50.6, 55.17 35.24, 84.64 -1.23 M31.34 68.32 C46.44 48.71, 63.34 33.98, 88.75 1.24 M31.64 67.17 C44.26 52.28, 56.84 39.3, 89.84 0.5 M36.13 67.73 C60.95 39.83, 82.64 14.6, 95.26 -0.65 M38.71 66.49 C58.38 42.82, 77.84 21.13, 95.3 -1.22 M40.96 68.38 C60.96 43.54, 78.37 24.59, 99.58 1.13 M42.58 65.54 C55.34 51.19, 68.13 38.11, 100.93 0.56 M47.43 67.09 C63.11 50.36, 73.6 36.16, 106 -1.06 M48.81 66.96 C65.08 46.92, 81.21 27.52, 106.74 -0.48 M51.61 65.27 C67.07 48.93, 78.99 35.26, 111.91 0.41 M52.66 66.92 C76.66 39.96, 99.08 13.41, 110.68 0.55 M58.79 67.4 C77.4 43.67, 94.69 22.9, 115.2 1.42 M58.23 67.76 C73.72 50.14, 88.03 33.64, 115.29 -0.11 M62.97 65.91 C79.4 49.81, 93.5 31.91, 121.16 0.49 M65.15 66.17 C86.44 42.25, 106.03 19.67, 122.86 -0.28 M70.36 67.44 C82.23 50.56, 97.86 36.74, 127.26 -0.71 M68.4 67.57 C82.43 50.25, 95.96 35.5, 127.57 -0.06 M75.49 64.95 C91.86 43.88, 113.94 23.56, 131.27 3 M75.69 65.52 C96.28 43.29, 117.59 18.57, 131.82 0.7 M80.74 67.97 C96.83 44.34, 116.49 26.6, 133.47 7.83 M79.28 66.18 C93.53 50.91, 108.15 33.25, 131.74 7.17 M84.42 66.75 C101.15 48.49, 115.13 31.41, 131.34 13.86 M85.3 65.62 C95.96 55.53, 103.92 43.75, 132.16 12.56 M92.31 66.47 C106.63 51.14, 120.93 32.95, 129.14 21.77 M89.66 66.32 C99.5 55.8, 108.87 45.54, 131.48 20.16 M97.76 67.4 C104.79 53.82, 115.63 44.69, 133.36 26.06 M95.33 66.49 C107.36 53.07, 118.39 39.83, 131.42 24.65 M101.23 67.13 C108.21 59.73, 115.12 49.46, 129.59 31.46 M100.22 66.56 C109.45 57.77, 115.45 49.42, 131.11 31.84 M106.33 64.71 C115.09 54.3, 122.15 47.22, 131.89 35.89 M106.5 66.54 C114.32 57.71, 121.81 50.19, 130.82 37.76 M111.43 66.86 C115.78 58.93, 122.51 55.05, 132.37 42.58 M112.48 66.41 C116.48 60.33, 121.91 53.59, 130.75 44.09 M117.69 68.18 C124.24 58.39, 127.86 52.12, 130.61 51.11 M117.9 65.57 C122.15 61.59, 125.81 57.08, 130.78 51.33 M121.14 65.68 C125.73 63.13, 128.7 57.39, 130.78 57.22 M121.97 67.04 C125.54 62.83, 128.45 59.66, 130.82 56.3 M127.53 65.91 C128.48 65.21, 129.9 64.32, 131.18 62.29 M127.96 66.09 C129.18 64.65, 130.3 63.71, 131.07 62.17" stroke="#82c91e" stroke-width="0.5" fill="none"></path><path d="M-0.1 1.73 C31.99 1.2, 61.89 1.09, 131.07 0.51 M0.18 -0.3 C38.05 0.77, 76.83 0.13, 129.75 -0.1 M130.34 1.18 C129.32 13.64, 131.1 31.54, 129.76 67.4 M130.86 -0.97 C131.45 25.39, 131.52 52.72, 130.48 66.06 M128.18 66.53 C101.96 65.39, 73.71 66.13, 0.78 66.57 M130.06 66.81 C87.81 64.74, 44.34 66.13, -0.71 66.94 M1.19 67.89 C-0.75 44.17, 2.33 22.94, 0.33 0.99 M0.42 65.27 C-1.33 50.71, -0.76 34.28, -0.08 -0.21" stroke="#000000" stroke-width="1" fill="none"></path></g><g transform="translate(15 219.5) rotate(0 60 12.5)"><text x="60" y="18" font-family="Virgil, Segoe UI Emoji" font-size="20px" fill="#000000" text-anchor="middle" style="white-space: pre;" direction="ltr">Post</text></g><g stroke-linecap="round" transform="translate(243 229) rotate(0 29.5 18)"><path d="M0.22 18.74 C0.22 18.74, 0.22 18.74, 0.22 18.74 M0.22 18.74 C0.22 18.74, 0.22 18.74, 0.22 18.74 M4.33 21.7 C5.96 18.61, 10.26 14.63, 12.32 11.02 M3.48 20.97 C4.77 19.64, 7.33 17.31, 12.1 11.81 M8.63 24.43 C10.81 16.93, 14.12 13.2, 22.31 5.76 M6.89 22.39 C11.96 18.31, 14.13 14.26, 23.16 5.14 M9.99 25.63 C15.79 17.86, 25.93 6.97, 33.49 0.34 M10.03 24.79 C14.89 19.05, 20.65 14.14, 31.34 0.42 M16.18 28.9 C21.39 20.35, 24.03 12.74, 34.98 3.78 M15.03 27.74 C21.91 18.16, 29.02 9.91, 34.49 3.82 M17.8 28.67 C23.75 19.72, 31.89 12.79, 36.56 4.68 M17.53 29.42 C23.47 22.48, 28.16 16.82, 37.47 5.54 M23.05 31.28 C27.97 20.53, 35.1 12.47, 42.07 7.12 M22.17 31.47 C28.8 22.51, 36.21 12.72, 41.58 7.42 M25.27 34.46 C31.79 25.63, 41.54 17.41, 45.48 8.14 M24.37 33.91 C32.11 24.24, 40.49 14.51, 45.84 10.72 M27.76 37.19 C34.21 25.75, 41.83 21.39, 49.81 10.6 M28.37 35.15 C35.49 26.97, 43.02 17.76, 48.13 12.23 M32 38.98 C36.62 33.51, 38.66 27.26, 50.54 13.96 M31.66 36.63 C37.78 29.8, 43.97 22.57, 51.87 15.34 M41.06 30.18 C47.21 26.45, 49.15 23.35, 55.25 14.36 M41.61 31.39 C45.67 28.08, 49.52 24.25, 55.8 15.41 M52.71 25.14 C54.45 23.28, 56.96 20.03, 58.91 19.03 M52.74 24.88 C54.64 23.22, 56.43 21.34, 57.97 18.81" stroke="#868e96" stroke-width="0.5" fill="none"></path><path d="M28.98 0.81 C36.44 2.09, 40.88 7.62, 57.97 20.72 M30.08 0.16 C38.33 6.04, 46.65 11.61, 59.06 19.95 M58.8 20.46 C51.26 23.35, 47.27 27.56, 31.06 34.71 M59.29 18.3 C49.29 24.43, 39.18 29.98, 29.36 35.18 M31.12 37.03 C19.59 28.12, 8.3 23.28, 0.15 18.31 M29.37 36.02 C18.3 29.16, 7.44 24.24, -0.19 19.29 M-0.15 20.88 C11.95 13.29, 24.31 3.02, 28.28 0.92 M-0.65 18.52 C5.84 13.77, 13 9.94, 29.79 0.23" stroke="#000000" stroke-width="1" fill="none"></path></g><g transform="translate(248 234.5) rotate(0 24.5 12.5)"><text x="24.5" y="18" font-family="Virgil, Segoe UI Emoji" font-size="20px" fill="#000000" text-anchor="middle" style="white-space: pre;" direction="ltr">has</text></g><g stroke-linecap="round"><g transform="translate(388 290) rotate(0 -38.53254932746292 -18.680189534574765)"><path d="M0.39 -0.62 C-12.45 -6.98, -63.65 -32.64, -76.68 -39.03 M-0.86 1.67 C-13.86 -4.5, -65.05 -31.4, -77.46 -38.04" stroke="#000000" stroke-width="1" fill="none"></path></g></g><g stroke-linecap="round"><g transform="translate(240.26563592547342 243.42641924666714) rotate(0 -45.6786049282261 -2.392497466214593)"><path d="M-0.95 -1.07 C-16.17 -1.72, -77.02 -3.4, -92.11 -3.89 M0.76 0.98 C-14.03 -0.04, -74.32 -4.57, -89.85 -5.77" stroke="#000000" stroke-width="1" fill="none"></path></g></g><g transform="translate(363 230) rotate(0 3 12.5)"><text x="0" y="18" font-family="Virgil, Segoe UI Emoji" font-size="20px" fill="#000000" text-anchor="start" style="white-space: pre;" direction="ltr">1</text></g><g transform="translate(199 203) rotate(0 5 12.5)"><text x="0" y="18" font-family="Virgil, Segoe UI Emoji" font-size="20px" fill="#000000" text-anchor="start" style="white-space: pre;" direction="ltr">n</text></g><g stroke-linecap="round" transform="translate(387 10) rotate(0 67 37)"><path d="M0 0 C0 0, 0 0, 0 0 M0 0 C0 0, 0 0, 0 0 M-0.38 6.11 C0.77 4.74, 2.16 4.57, 5.1 0.41 M-0.09 6.34 C0.83 5.19, 2.39 3.01, 4.75 0.44 M0.63 12.36 C3.92 9.63, 5.21 5.7, 11.42 0.12 M-0.36 12.47 C3.83 7.34, 7.64 4.18, 10.87 -0.21 M-1.2 19.48 C2.99 15.78, 5.63 9.18, 17.57 1.86 M-1.12 17.95 C4.22 12.27, 9.33 6.89, 15.37 0.03 M-0.49 24.59 C9.23 14.24, 13.76 8.66, 20.81 1.88 M1.21 23.83 C4.79 18.04, 10.3 12.87, 21.6 -0.45 M0.36 29.43 C5.81 22.17, 15.55 11.91, 27.87 0.1 M0.67 30.08 C6.29 23.63, 11.15 17.04, 25.54 -0.47 M-0.22 38.42 C7.85 26.81, 13.52 22.31, 30.22 0.11 M0.32 36.12 C11.98 23.93, 23.15 9.76, 32.52 -0.37 M1.98 43.26 C7.09 33.48, 16.06 23.5, 35.8 -0.56 M0.24 42.59 C13.91 27.21, 26.51 11.34, 37.09 0.4 M-0.15 49.28 C10.36 35.31, 23.27 20.98, 41.11 1.69 M0.66 47.99 C14.27 34.54, 27.54 19.45, 42.41 0.63 M-1.7 56.43 C17.51 31.36, 36.61 9.49, 46.77 -1.2 M0.64 54.83 C13.65 40.19, 27.74 24.93, 48.06 -0.16 M1.87 61.48 C14.12 44.75, 28.32 27.74, 53.54 -0.84 M-0.07 60.07 C17.6 40.57, 35.89 20.49, 53.39 -0.4 M-1.9 66.89 C22.26 41.41, 44.74 12.52, 57.96 1.85 M-0.38 67.26 C16.6 48.18, 32.83 30.56, 57.36 -0.01 M0.4 71.31 C13.63 58.76, 27.54 42.47, 64.34 0.79 M-0.67 73.18 C17.87 50.76, 36.27 30.05, 63.9 -1.03 M3.5 74.99 C17.75 57.21, 35.03 41.47, 68.36 -1.03 M1.88 76.5 C23.02 54.15, 40.35 32.85, 69.74 0.83 M7.65 76.72 C22.96 59.51, 37.68 44.75, 73.11 0.59 M7.81 76.94 C31.96 48.4, 53.18 22.36, 73.77 -0.45 M12.1 78.06 C36.52 48.85, 60.2 23.04, 80.7 1.27 M12.15 76.75 C26.81 60.65, 40.55 42.94, 78.83 -0.74 M18.51 75.47 C41.09 51.9, 62.79 26.61, 84.26 0.25 M18.06 74.98 C33.22 57.55, 48.27 41.14, 85.15 -0.43 M21.79 75.5 C40.78 56.75, 53.97 39.32, 91.53 -1.45 M23.04 75.98 C49.91 47.62, 74.56 19.69, 90.11 0.05 M28.25 77.02 C57.37 45.53, 80.19 19.72, 96.95 -0.8 M29.25 75.77 C55.22 47.34, 80.25 17.56, 95.6 -0.39 M33.11 75.37 C60.68 45.81, 87.18 14.34, 101.16 1.36 M34.4 75.48 C49.96 59.37, 64.52 41.88, 99.9 0.9 M37.92 77.29 C53.88 60.29, 66.29 44.35, 107.14 0.58 M39.37 76.44 C52.38 59.21, 67.6 42.41, 107 -0.31 M43.4 77.42 C58.68 61.7, 72.2 46.8, 111.69 -1.05 M44.42 75.92 C62.54 55.29, 81.86 33.68, 110.42 -0.65 M48.3 76.66 C63.64 62.4, 77.02 44.27, 116.91 2.03 M50.24 75.73 C65.68 59.1, 81.44 40.14, 115.94 0.93 M56.77 75.15 C70.66 56.81, 88.36 40.72, 120.99 1.3 M54.68 76.38 C79.09 49.12, 102.59 21.5, 122.71 -0.14 M61.98 78.46 C88.11 44.63, 113.82 17.24, 127.09 -1.39 M60.58 77.53 C83.45 50.3, 107.12 23.57, 127.36 -0.4 M66.11 77.77 C89.79 49.79, 112 25.81, 132.73 1.09 M67.11 75.33 C90.61 50.6, 113.36 22.24, 131.7 0.78 M71.99 76.03 C92.59 48.33, 115.85 23.49, 138.02 2.88 M71.62 76.88 C92.24 50.7, 114.33 27.32, 136.26 2.13 M75.1 76.2 C97.27 52.43, 119.04 29.86, 135.12 8.04 M76.98 75.61 C92.98 57.83, 109.4 38.41, 135.95 7.64 M83.16 75.4 C94.27 64.54, 104.04 49.85, 136.89 13.93 M81.44 75.7 C102.9 53.5, 122.88 29.95, 136.09 13.14 M88.19 77.1 C106.98 56.15, 127.07 32.02, 137.32 21.76 M87.94 75.47 C107.17 53.67, 124.46 31.29, 137.02 21.05 M94.08 77.32 C107.65 56.11, 126.22 35.09, 134.77 24.93 M91.99 75.8 C105.58 60.22, 119.56 44.64, 136.73 26 M96.62 76.82 C112.22 61.09, 127.9 43.17, 135.62 31.31 M98.99 75.53 C108.84 62.47, 119.19 50.89, 136.69 33.24 M103.12 75.28 C116.41 60.71, 129.67 49.96, 137.62 40.1 M104.08 75.89 C111.9 67.08, 117.75 58.8, 136.57 38.8 M108.41 75.46 C118.26 67.43, 125.35 57.47, 136.79 44.27 M109.49 75.84 C115.6 68.77, 120.15 62.45, 137.32 44.12 M114.44 77.45 C118.82 69.45, 126.95 58.53, 136.2 51.09 M114.38 76.56 C119.14 69.11, 125.27 63.85, 135.33 49.76 M118.35 74.8 C125.55 68.17, 132.49 63.32, 134.76 57.68 M120.17 76.8 C124.87 70.11, 131.02 64.52, 135.46 57.25 M124.03 76.71 C127.44 73.1, 131.85 66.95, 136.07 63.48 M124.41 77.21 C128.23 71.15, 131.11 66.94, 137.05 62.77 M130.05 76.15 C130.48 74.49, 133.31 72.56, 135.61 69.11 M130.08 76.07 C131.64 74.26, 133.18 72.89, 135.76 69.46" stroke="#82c91e" stroke-width="0.5" fill="none"></path><path d="M0.36 -0.08 C52.66 -0.44, 105.78 -0.56, 135.64 1.43 M-0.9 -0.08 C40.77 1.04, 82.1 -0.27, 133.68 0.3 M134.29 -0.15 C132.46 24.11, 132.09 46.23, 135.34 74.57 M133.6 -0.95 C134.08 20.05, 134.92 41.28, 134.91 73.45 M132.72 75.16 C96.38 74.3, 63.02 73.7, 1.35 73.47 M133.81 74.42 C98.12 75.35, 60.59 73.85, 0.81 74.3 M-0.41 73.66 C1.04 49.39, 1.93 30.28, 0.77 0.06 M-0.38 73.1 C0.31 52.93, 1.11 29.39, 0.96 0.31" stroke="#000000" stroke-width="1" fill="none"></path></g><g transform="translate(392 34.5) rotate(0 62 12.5)"><text x="62" y="18" font-family="Virgil, Segoe UI Emoji" font-size="20px" fill="#000000" text-anchor="middle" style="white-space: pre;" direction="ltr">Message</text></g><g stroke-linecap="round" transform="translate(427 167) rotate(0 31 17.5)"><path d="M-0.27 18.31 C-0.27 18.31, -0.27 18.31, -0.27 18.31 M-0.27 18.31 C-0.27 18.31, -0.27 18.31, -0.27 18.31 M2.74 19.17 C5.38 17.02, 8.46 14.56, 11.52 10.81 M3.4 20.25 C5.64 17.35, 6.93 15.48, 10.27 11.92 M8.22 20.19 C11.33 17.55, 14.21 15.76, 19.74 4.47 M6.48 21.7 C13.45 16.58, 17.78 8.74, 20.81 6.05 M10.33 25.02 C19.58 15.95, 24.24 5.84, 31.4 1.61 M10.03 23.91 C15.1 19.39, 19.23 13.8, 31.14 -0.31 M12.86 27.77 C20.88 18.17, 29.72 11.67, 32.82 2.28 M15.16 26.48 C22.37 17.28, 29.65 8.1, 35.59 2.04 M16.3 28.74 C26.23 21.44, 32.81 10.94, 38.5 4.99 M18.76 27.71 C22.54 22.06, 28.36 16.52, 38.34 3.77 M21.4 28.41 C26.85 23.85, 31.88 16.45, 41.7 6.01 M21.9 28.73 C27.02 23.67, 32.24 17.11, 42.17 7.53 M27.42 32.24 C34.25 20.36, 42.86 12.06, 43.82 7.7 M25.24 30.59 C30.34 26.87, 34.57 21.24, 46.1 9.48 M28.26 33.48 C37.92 26.5, 44.65 16.48, 48.64 11.74 M29.43 32.38 C33.91 28.15, 37.07 22.65, 48.79 10.9 M34.7 34.01 C39.18 26.56, 44.41 20.31, 53.17 11.01 M32.52 34.3 C37.26 29.97, 41.21 25.65, 51.66 13.29 M41.21 27.67 C47.44 25.7, 48.55 21.25, 56.41 15.83 M42.94 30.16 C47.16 24.61, 50.14 21.24, 54.93 14.96 M52.7 23.54 C55.54 22.33, 56.02 19.66, 58.86 17.43 M53.23 23.58 C55.18 20.97, 57.81 19.11, 58.9 16.58" stroke="#868e96" stroke-width="0.5" fill="none"></path><path d="M31.34 1.11 C41.25 3.43, 48.46 7.4, 61.29 18.57 M31.75 0.32 C39.72 4.11, 46.61 9.47, 62.6 18.26 M62.12 17.47 C56.98 21.24, 49.21 26.07, 30.02 36.74 M61.95 17.72 C51.73 24.05, 38.51 30.95, 32.75 35.91 M30.21 35.11 C25.26 30.59, 20.02 26.64, 0.6 18.28 M31.42 35.01 C24.6 30.72, 15.65 25.17, -0.27 17.44 M-1.74 17.34 C7.92 12.42, 16.93 7.49, 31 0.41 M-0.49 17.42 C11.84 11.4, 24.79 3.29, 32.68 -0.05" stroke="#000000" stroke-width="1" fill="none"></path></g><g transform="translate(432 172) rotate(0 26 12.5)"><text x="26" y="18" font-family="Virgil, Segoe UI Emoji" font-size="20px" fill="#000000" text-anchor="middle" style="white-space: pre;" direction="ltr">has</text></g><g stroke-linecap="round"><g transform="translate(454 282) rotate(0 2.925412990525359 -35.789534350112035)"><path d="M-1.07 0.07 C-0.11 -11.94, 5.47 -59.64, 6.92 -71.65 M0.56 -0.94 C1.26 -12.83, 4.83 -58.75, 5.94 -70.45" stroke="#000000" stroke-width="1" fill="none"></path></g></g><g stroke-linecap="round"><g transform="translate(459 160) rotate(0 2.019260694459092 -34.16701776571574)"><path d="M-0.53 -0.18 C0.4 -11.47, 3.75 -56.89, 4.57 -68.15 M1.39 -1.32 C2.22 -12.39, 3.08 -55.87, 3.4 -66.7" stroke="#000000" stroke-width="1" fill="none"></path></g></g><g transform="translate(480 239) rotate(0 3 12.5)"><text x="0" y="18" font-family="Virgil, Segoe UI Emoji" font-size="20px" fill="#000000" text-anchor="start" style="white-space: pre;" direction="ltr">1</text></g><g transform="translate(482 116) rotate(0 5 12.5)"><text x="0" y="18" font-family="Virgil, Segoe UI Emoji" font-size="20px" fill="#000000" text-anchor="start" style="white-space: pre;" direction="ltr">n</text></g><g transform="translate(332.75570909693124 498.40458954926453) rotate(0 5 12.5)"><text x="0" y="18" font-family="Virgil, Segoe UI Emoji" font-size="20px" fill="#000000" text-anchor="start" style="white-space: pre;" direction="ltr">n</text></g><g stroke-linecap="round" transform="translate(712.1842805255027 48.26173240640742) rotate(0 67 37)"><path d="M0 0 C0 0, 0 0, 0 0 M0 0 C0 0, 0 0, 0 0 M-0.86 6.93 C0.67 5.24, 2.69 3.37, 5.65 0.04 M-0.55 6.25 C1.67 3.99, 3.39 2.56, 4.69 0.61 M-0.56 11.32 C4.24 8.05, 6.53 4.41, 11.45 -1.57 M0.61 12.28 C3.67 7.58, 7.09 3.78, 10.5 -0.29 M1.34 16.77 C3.92 12.2, 10.26 7.55, 17.51 -0.5 M-0.05 18.29 C4.05 14.78, 6.67 11.54, 15.98 0.57 M2.17 22.46 C3.86 17.49, 11.16 12.71, 20.28 -1.3 M0.53 23.16 C8.36 14.12, 15.03 6.71, 21.35 0.68 M-1.91 29.09 C7.16 24.2, 11.98 15.47, 27.1 0.94 M-0.07 30.35 C7.83 21.05, 16.73 13.01, 26.51 -0.71 M1.07 38.85 C11.64 21.49, 24.28 10.86, 29.93 -0.43 M-0.36 36.34 C8.23 27.5, 15.59 19.84, 31.81 0.31 M1.3 40.96 C12.99 25.21, 29.61 9.35, 36.83 1.51 M0.9 43.23 C9.47 33.74, 16.25 24.65, 36.49 0.49 M1.69 49.45 C10.73 33.6, 24.74 20.11, 41.65 0.69 M0.51 49.21 C14.59 31.42, 29.37 14.85, 41.67 -0.31 M-1.02 53.4 C12.03 41.84, 20.53 29.47, 47.35 -0.37 M1.18 53.57 C17.03 35.57, 35.39 16.17, 46.91 1.13 M-0.98 62.43 C12.51 48.01, 26.19 29.31, 51.71 -1.16 M0 60.97 C14.3 44, 29.43 26.93, 53.13 -0.41 M-2.22 68.96 C22.24 43.83, 42.22 20.36, 58.58 -1.56 M-1.19 66.4 C14.63 52.03, 28 35.34, 57.18 -0.23 M-0.03 73.93 C24.64 46.7, 46.84 18.7, 63.65 -0.45 M-0.01 73.7 C22.19 47.99, 42.56 23.73, 64.77 0.41 M4.16 77.62 C17.14 60.02, 31.25 46.57, 69.67 1.86 M2.82 77.07 C26.86 47.99, 51.34 19.57, 69.05 0.63 M6.59 75.81 C31.55 49.92, 55.92 20.46, 76.25 1.09 M8.63 76.05 C34.31 46.41, 60.64 14.62, 73.53 0.15 M12.5 77.39 C29.65 61.77, 41.03 45.13, 79.05 -1.48 M13.25 75.83 C28.06 59.4, 42.9 41.82, 78.66 -0.46 M19.04 75.75 C32.64 57.59, 46.1 43.49, 83.56 -1.52 M19.29 75.39 C40.62 51.55, 61.98 25.9, 84.75 0.46 M23.96 77.34 C43.41 55.52, 61.57 34.78, 88.36 1.84 M24.04 76.86 C38.71 59.37, 52.93 43.9, 90.53 -0.05 M31.34 75.16 C52.13 52.98, 72.46 25.98, 94.85 -0.49 M30.38 75.69 C50.64 52.26, 70.31 27.02, 96.13 0.61 M34.83 78.26 C55.2 54.24, 75.66 29.23, 102.51 1.97 M33.4 76.95 C56.9 51.36, 80.38 25.53, 101.55 0.94 M38.75 77.97 C60.47 49.92, 85.02 27.72, 106.66 0.71 M38.63 76.29 C61.06 49.89, 84.16 24.75, 105.73 -0.51 M44.64 77.67 C60.78 53.87, 79.55 34.29, 109.68 1.8 M45.9 76.48 C67.55 50.81, 89.26 24.52, 110.98 -0.79 M49.75 78.56 C69.7 50.79, 91.51 28.64, 118.12 0.1 M49.1 75.89 C71.27 50.61, 93.37 24.57, 115.36 0.38 M56.18 77.85 C79.2 47.42, 104.48 18.74, 121.26 1 M56.5 75.47 C78.74 50.77, 100.8 24.63, 122.46 -0.89 M62.09 78.34 C77.53 60.95, 91.88 42.58, 125.58 2.21 M61.29 77.06 C86.39 46.78, 113.61 16.23, 127.16 -0.1 M67.48 77.83 C83.76 53.92, 102.71 36.27, 131.92 -0.04 M66.53 75.56 C81.85 58.9, 95.76 42.37, 132 0.57 M69.43 74.71 C96.86 45.76, 120.89 19.58, 137.35 0.07 M71.7 77.26 C96.13 47.61, 120.03 18.06, 136.35 2.09 M75.83 77.38 C90.37 59.52, 101.76 44.91, 136.34 8.13 M77.68 76.02 C90.35 61.47, 101.59 48.88, 136.77 7.49 M80.67 77.82 C91.4 63.26, 104.11 51.98, 135.1 14.27 M81.23 75.58 C98.23 56.79, 115.11 38.09, 136.65 13.39 M85.77 77.03 C104.4 58.49, 120.24 38.74, 135.64 18.9 M88.03 75.75 C102.84 58.96, 117.51 41.13, 135.48 20.54 M91.99 74.58 C106.85 59.5, 118.75 46.22, 136.8 26.52 M93.14 76.71 C108.84 58.33, 124.05 38.27, 137.18 26.27 M97.07 78.06 C111.79 61.44, 125.05 43.48, 137.5 31.14 M98.03 75.25 C109.16 63.6, 121.09 50.43, 136.55 32.78 M102.79 76.64 C114.47 60.83, 130.5 47.29, 137.82 38.6 M103.06 77 C113.21 66.01, 122.98 54.43, 135.62 38.11 M108.77 74.5 C117.17 67.47, 125.86 54.88, 137.57 44.25 M108.5 76.68 C116.53 66.91, 124.39 59.34, 135.48 44.66 M115.72 76.4 C120.6 67.71, 128.23 59.17, 134.77 50.78 M113.02 76.38 C118.09 72.06, 123.15 66.21, 135.98 51.68 M119.17 77.12 C126.63 67.28, 134.09 59.33, 134.11 55.14 M118.66 75.79 C125.16 70, 130.3 63.13, 135.5 57.02 M124.68 75.14 C127.32 73.46, 130.56 67.98, 137.39 62.39 M125.3 76.44 C128 71.54, 132.24 66.07, 136.64 63.53 M129.94 76.63 C131.64 74.17, 133.7 72.16, 135.36 68.29 M130.07 75.98 C132.64 73.75, 134.71 70.7, 136.08 69.57" stroke="#82c91e" stroke-width="0.5" fill="none"></path><path d="M-0.65 -0.1 C29.73 0.47, 62.71 1.36, 133.57 0.33 M-0.39 -0.33 C46.91 -0.21, 92.55 1.57, 133.86 -0.89 M132.67 -0.22 C134.68 25.28, 132.81 48.94, 133.97 74.86 M134.83 0.65 C134.28 13.89, 133.84 28.72, 134.78 73.64 M132.14 72.64 C106.23 71.81, 77.74 74.67, 0.2 75.02 M134.47 74.36 C89.01 72.94, 42.75 72.2, 0.61 74.95 M-0.34 74.07 C-0.07 43.57, 0.24 16.13, 1.99 -0.18 M-0.08 73.82 C-1.4 56.79, -0.24 40.26, 0.7 0.46" stroke="#000000" stroke-width="1" fill="none"></path></g><g transform="translate(717.1842805255027 72.76173240640742) rotate(0 62 12.5)"><text x="62" y="18" font-family="Virgil, Segoe UI Emoji" font-size="20px" fill="#000000" text-anchor="middle" style="white-space: pre;" direction="ltr">Notice</text></g><g stroke-linecap="round" transform="translate(586.7557090969311 193.47601812069274) rotate(0 31 17.5)"><path d="M-0.27 18.31 C-0.27 18.31, -0.27 18.31, -0.27 18.31 M-0.27 18.31 C-0.27 18.31, -0.27 18.31, -0.27 18.31 M3.31 19.64 C4.41 19.04, 6.73 17.14, 10.91 10.87 M3.78 20.23 C6.27 17.27, 8.41 15.27, 10.09 11.5 M8.03 22.91 C12 17.09, 15.13 13.08, 20.71 5.94 M7.9 22.32 C10.03 18.01, 15.48 13.58, 21.52 7.19 M11.39 21.97 C17.37 14.73, 22.81 6.75, 30.88 -0.54 M10.92 23.84 C18.71 16.25, 25.69 7.87, 31.67 -0.26 M14.05 25.74 C20.62 18.59, 22.84 13.12, 36.28 3.81 M15.34 25.4 C22.21 16.91, 29.04 7.97, 35.67 2.66 M16.34 26.79 C23.97 23.06, 26.12 17.29, 39.71 4.85 M18.73 26.81 C22.53 21.85, 27.3 17.93, 37.8 3.68 M21.61 29.37 C28.15 22.83, 34.82 12.7, 43.27 4.91 M22.24 28.93 C27.6 23.09, 32.06 16.94, 40.96 7.63 M23.76 29.96 C29.67 24.73, 35.26 17.48, 45.11 8.78 M24.86 31.38 C29.93 26.78, 35.1 20.35, 44.15 9.56 M30.73 33.71 C34.65 23.66, 42.89 16.4, 46.94 8.71 M29.72 32.31 C35.23 26.27, 41.77 17.3, 48.72 11.1 M32.02 35.01 C39.06 28.31, 44.04 20.96, 52.18 13.89 M32.27 36.13 C40.06 26.81, 46.82 19.45, 53.31 13.12 M44.66 30.32 C49.31 25.53, 53.91 17.38, 56.1 16.43 M43.13 29.73 C47.34 25.75, 50.83 20.42, 54.76 15.04 M53.34 24.61 C55.35 22.91, 56.54 20.36, 59.61 17.05 M52.99 23.39 C55.16 21.37, 56.32 19.66, 59.03 17.23" stroke="#868e96" stroke-width="0.5" fill="none"></path><path d="M33.13 1.99 C40.95 4.05, 51.85 9.05, 61.84 17.64 M32.22 0.7 C38.87 4, 45.39 8.35, 61.92 17.12 M63.77 16.26 C50.29 25.46, 41.28 29.01, 32.24 34.83 M61.53 17.7 C51.69 23.38, 42.41 28.72, 31.25 35.67 M31.86 36.66 C22.92 31.49, 14.69 26.75, -1.46 17.26 M32.56 34.26 C22.04 29.18, 9.71 23.41, -0.43 17.55 M-1.07 19.02 C9.82 12.59, 23.26 3.64, 33.18 0.59 M0.51 17.83 C8.28 13.61, 17.24 8.53, 32.73 -0.83" stroke="#000000" stroke-width="1" fill="none"></path></g><g transform="translate(591.7557090969311 198.47601812069274) rotate(0 26 12.5)"><text x="26" y="18" font-family="Virgil, Segoe UI Emoji" font-size="20px" fill="#000000" text-anchor="middle" style="white-space: pre;" direction="ltr">has</text></g><g stroke-linecap="round"><g transform="translate(521.439423451734 293.0938932073236) rotate(0 38.49602548796449 -31.00211945008266)"><path d="M0.9 -1.17 C13.76 -11.5, 64.54 -52.55, 77.08 -62.84 M-0.09 0.84 C12.62 -9.24, 62.98 -50.99, 76.08 -61.42" stroke="#000000" stroke-width="1" fill="none"></path></g></g><g stroke-linecap="round"><g transform="translate(633.9211987233814 194.52566088216815) rotate(0 55.8837382557316 -30.795710453228992)"><path d="M0.21 -0.87 C18.95 -10.96, 94.24 -50.94, 112.91 -60.98 M-1.15 1.28 C17.37 -9.13, 92.45 -52.72, 111.73 -62.87" stroke="#000000" stroke-width="1" fill="none"></path></g></g><g transform="translate(576.3271376683598 265.5474466921214) rotate(0 3 12.5)"><text x="0" y="18" font-family="Virgil, Segoe UI Emoji" font-size="20px" fill="#000000" text-anchor="start" style="white-space: pre;" direction="ltr">1</text></g><g transform="translate(703.4699948112169 172.69030383497864) rotate(0 5 12.5)"><text x="0" y="18" font-family="Virgil, Segoe UI Emoji" font-size="20px" fill="#000000" text-anchor="start" style="white-space: pre;" direction="ltr">n</text></g></svg>