<svg width="15" height="14" viewBox="0 0 15 14"  xmlns="http://www.w3.org/2000/svg">
<path d="M8.53125 12.9375C8.84375 12.625 8.8125 12.1562 8.53125 11.8438L4.75 8.25H13.75C14.1562 8.25 14.5 7.9375 14.5 7.5V6.5C14.5 6.09375 14.1562 5.75 13.75 5.75H4.75L8.53125 2.1875C8.8125 1.875 8.84375 1.40625 8.53125 1.09375L7.84375 0.40625C7.5625 0.125 7.0625 0.125 6.78125 0.40625L0.71875 6.5C0.40625 6.78125 0.40625 7.25 0.71875 7.53125L6.78125 13.625C7.0625 13.9062 7.53125 13.9062 7.84375 13.625L8.53125 12.9375Z" fill="currentColor"/>
</svg>
