<?xml version="1.0" standalone="no"?><!DOCTYPE svg PUBLIC "-//W3C//DTD SVG 1.1//EN" "http://www.w3.org/Graphics/SVG/1.1/DTD/svg11.dtd"><svg t="1660020286644" class="icon" viewBox="0 0 1024 1024" version="1.1" width='1em' height='1em' xmlns="http://www.w3.org/2000/svg" p-id="3928" xmlns:xlink="http://www.w3.org/1999/xlink"><defs><style type="text/css">@font-face { font-family: feedback-iconfont; src: url("//at.alicdn.com/t/font_1031158_u69w8yhxdu.woff2?t=1630033759944") format("woff2"), url("//at.alicdn.com/t/font_1031158_u69w8yhxdu.woff?t=1630033759944") format("woff"), url("//at.alicdn.com/t/font_1031158_u69w8yhxdu.ttf?t=1630033759944") format("truetype"); }
</style></defs><path d="M470.036439 805.749014l83.928144 0c15.450954 0 27.976048-12.525094 27.976048-27.976048 0-15.450954-12.525094-27.976048-27.976048-27.976048l-83.928144 0c-15.450954 0-27.976048 12.525094-27.976048 27.976048C442.059369 793.222898 454.585485 805.749014 470.036439 805.749014z" p-id="3929" fill='currentColor'></path><path d="M861.678627 120.335329 700.838068 120.335329 700.838068 92.359281c0-15.450954-12.525094-27.976048-27.976048-27.976048-15.450954 0-27.976048 12.525094-27.976048 27.976048l0 27.976048L379.114028 120.335329 379.114028 92.359281c0-15.450954-12.525094-27.976048-27.976048-27.976048-15.450954 0-27.976048 12.525094-27.976048 27.976048l0 27.976048L162.321373 120.335329C108.16792 120.335329 64.383234 164.175202 64.383234 218.254052l0 132.883928 0 55.952096 0 454.607968C64.383234 915.82186 108.231281 959.616766 162.321373 959.616766l699.358275 0C915.83208 959.616766 959.616766 915.776894 959.616766 861.698044L959.616766 407.090076l0-55.952096L959.616766 218.254052C959.616766 164.130236 915.768719 120.335329 861.678627 120.335329zM903.664671 861.698044c0 23.202491-18.759026 41.966627-41.986044 41.966627L162.321373 903.664671c-23.209645 0-41.986044-18.76618-41.986044-41.966627L120.335329 407.090076l783.329341 0L903.664671 861.698044zM903.664671 351.13798l-783.329341 0L120.335329 218.254052c0-23.202491 18.759026-41.966627 41.986044-41.966627l160.840559 0 0 41.963561c0 15.450954 12.525094 27.976048 27.976048 27.976048 15.450954 0 27.976048-12.525094 27.976048-27.976048L379.114028 176.287425l265.771944 0 0 41.963561c0 15.450954 12.525094 27.976048 27.976048 27.976048 15.450954 0 27.976048-12.525094 27.976048-27.976048L700.838068 176.287425l160.840559 0c23.209645 0 41.986044 18.76618 41.986044 41.966627L903.664671 351.13798z" p-id="3930" fill='currentColor'></path><path d="M218.250986 553.963561l83.928144 0c15.450954 0 27.976048-12.525094 27.976048-27.976048 0-15.450954-12.525094-27.976048-27.976048-27.976048l-83.928144 0c-15.450954 0-27.976048 12.525094-27.976048 27.976048C190.27596 541.438467 202.801054 553.963561 218.250986 553.963561z" p-id="3931" fill='currentColor'></path><path d="M470.036439 553.963561l83.928144 0c15.450954 0 27.976048-12.525094 27.976048-27.976048 0-15.450954-12.525094-27.976048-27.976048-27.976048l-83.928144 0c-15.450954 0-27.976048 12.525094-27.976048 27.976048C442.059369 541.438467 454.585485 553.963561 470.036439 553.963561z" p-id="3932" fill='currentColor'></path><path d="M721.819848 553.963561l83.928144 0c15.450954 0 27.976048-12.525094 27.976048-27.976048 0-15.450954-12.525094-27.976048-27.976048-27.976048l-83.928144 0c-15.450954 0-27.976048 12.525094-27.976048 27.976048C693.844822 541.438467 706.369916 553.963561 721.819848 553.963561z" p-id="3933" fill='currentColor'></path><path d="M218.250986 679.856287l83.928144 0c15.450954 0 27.976048-12.525094 27.976048-27.976048 0-15.450954-12.525094-27.976048-27.976048-27.976048l-83.928144 0c-15.450954 0-27.976048 12.525094-27.976048 27.976048C190.27596 667.331194 202.801054 679.856287 218.250986 679.856287z" p-id="3934" fill='currentColor'></path><path d="M470.036439 679.856287l83.928144 0c15.450954 0 27.976048-12.525094 27.976048-27.976048 0-15.450954-12.525094-27.976048-27.976048-27.976048l-83.928144 0c-15.450954 0-27.976048 12.525094-27.976048 27.976048C442.059369 667.331194 454.585485 679.856287 470.036439 679.856287z" p-id="3935" fill='currentColor'></path><path d="M721.819848 679.856287l83.928144 0c15.450954 0 27.976048-12.525094 27.976048-27.976048 0-15.450954-12.525094-27.976048-27.976048-27.976048l-83.928144 0c-15.450954 0-27.976048 12.525094-27.976048 27.976048C693.844822 667.331194 706.369916 679.856287 721.819848 679.856287z" p-id="3936" fill='currentColor'></path><path d="M218.250986 805.749014l83.928144 0c15.450954 0 27.976048-12.525094 27.976048-27.976048 0-15.450954-12.525094-27.976048-27.976048-27.976048l-83.928144 0c-15.450954 0-27.976048 12.525094-27.976048 27.976048C190.27596 793.222898 202.801054 805.749014 218.250986 805.749014z" p-id="3937" fill='currentColor'></path><path d="M721.819848 805.749014l83.928144 0c15.450954 0 27.976048-12.525094 27.976048-27.976048 0-15.450954-12.525094-27.976048-27.976048-27.976048l-83.928144 0c-15.450954 0-27.976048 12.525094-27.976048 27.976048C693.844822 793.222898 706.369916 805.749014 721.819848 805.749014z" p-id="3938" fill='currentColor'></path></svg>