<svg width="16" height="16" viewBox="0 0 16 16" fill="none" xmlns="http://www.w3.org/2000/svg">
<rect width="16" height="16" rx="8" fill="black" fill-opacity="0.8"/>
<path d="M9.17188 8.5L11.5156 6.15625C11.8203 5.875 11.8203 5.40625 11.5156 5.125L11 4.60938C10.7188 4.30469 10.25 4.30469 9.96875 4.60938L7.625 6.95312L5.25781 4.60938C4.97656 4.30469 4.50781 4.30469 4.22656 4.60938L3.71094 5.125C3.40625 5.40625 3.40625 5.875 3.71094 6.15625L6.05469 8.5L3.71094 10.8672C3.40625 11.1484 3.40625 11.6172 3.71094 11.8984L4.22656 12.4141C4.50781 12.7188 4.97656 12.7188 5.25781 12.4141L7.625 10.0703L9.96875 12.4141C10.25 12.7188 10.7188 12.7188 11 12.4141L11.5156 11.8984C11.8203 11.6172 11.8203 11.1484 11.5156 10.8672L9.17188 8.5Z" fill="white"/>
</svg>
