<svg width="23" height="20" viewBox="0 0 23 20" fill="none" xmlns="http://www.w3.org/2000/svg">
    <rect x="0.0656738" width="22.9344" height="20" rx="10" fill="#E94242"/>
    <path d="M7.65666 13V12.037H9.11466V7.627H9.67266L7.80066 8.743V7.645L9.44766 6.655H10.2757V12.037H11.6437V13H7.65666ZM12.7561 13V12.145L14.8621 9.949C15.1261 9.673 15.3211 9.418 15.4471 9.184C15.5731 8.95 15.6361 8.71 15.6361 8.464C15.6361 8.158 15.5401 7.927 15.3481 7.771C15.1561 7.615 14.8771 7.537 14.5111 7.537C14.2171 7.537 13.9351 7.591 13.6651 7.699C13.3951 7.801 13.1311 7.963 12.8731 8.185L12.4951 7.321C12.7531 7.093 13.0711 6.91 13.4491 6.772C13.8331 6.634 14.2351 6.565 14.6551 6.565C15.3391 6.565 15.8641 6.718 16.2301 7.024C16.5961 7.33 16.7791 7.768 16.7791 8.338C16.7791 8.734 16.6861 9.112 16.5001 9.472C16.3141 9.826 16.0261 10.198 15.6361 10.588L13.8811 12.343V12.037H17.0311V13H12.7561Z"
          fill="white"/>
</svg>
